<mxfile host="65bd71144e">
    <diagram id="UV4ok9fgToE_LLleCVYe" name="Page-1">
        <mxGraphModel dx="2080" dy="928" grid="1" gridSize="10" guides="1" tooltips="1" connect="1" arrows="1" fold="1" page="1" pageScale="1" pageWidth="1920" pageHeight="1200" math="0" shadow="0">
            <root>
                <mxCell id="0"/>
                <mxCell id="1" parent="0"/>
                <mxCell id="3" style="edgeStyle=none;html=1;exitX=1;exitY=1;exitDx=0;exitDy=0;" parent="1" source="2" target="4" edge="1">
                    <mxGeometry relative="1" as="geometry">
                        <mxPoint x="500" y="760" as="targetPoint"/>
                        <Array as="points">
                            <mxPoint x="1350" y="570"/>
                        </Array>
                    </mxGeometry>
                </mxCell>
                <mxCell id="8" value="" style="edgeStyle=none;html=1;exitX=0;exitY=0.5;exitDx=0;exitDy=0;" parent="1" source="2" target="7" edge="1">
                    <mxGeometry relative="1" as="geometry"/>
                </mxCell>
                <mxCell id="22" style="edgeStyle=none;html=1;" parent="1" source="2" target="33" edge="1">
                    <mxGeometry relative="1" as="geometry">
                        <mxPoint x="933.2467532467535" y="850" as="targetPoint"/>
                    </mxGeometry>
                </mxCell>
                <mxCell id="2" value="main" style="rounded=0;whiteSpace=wrap;html=1;fillColor=#a20025;fontColor=#ffffff;strokeColor=#6F0000;fontSize=18;labelBackgroundColor=none;gradientColor=none;perimeterSpacing=0;strokeWidth=1;shadow=0;glass=0;" parent="1" vertex="1">
                    <mxGeometry x="590" y="330" width="670" height="60" as="geometry"/>
                </mxCell>
                <mxCell id="6" value="" style="edgeStyle=none;html=1;" parent="1" source="4" target="5" edge="1">
                    <mxGeometry relative="1" as="geometry"/>
                </mxCell>
                <mxCell id="35" value="" style="edgeStyle=none;html=1;fontSize=32;fontColor=#6960af;" parent="1" source="4" target="34" edge="1">
                    <mxGeometry relative="1" as="geometry"/>
                </mxCell>
                <mxCell id="4" value="character" style="rounded=0;whiteSpace=wrap;html=1;fillColor=#a20025;fontColor=#8f82f2;strokeColor=#6F0000;fontSize=32;labelBackgroundColor=none;gradientColor=none;perimeterSpacing=0;strokeWidth=1;shadow=0;glass=0;" parent="1" vertex="1">
                    <mxGeometry x="1160" y="820" width="220" height="110" as="geometry"/>
                </mxCell>
                <mxCell id="39" style="edgeStyle=none;html=1;fontSize=32;" edge="1" parent="1" source="5" target="37">
                    <mxGeometry relative="1" as="geometry"/>
                </mxCell>
                <mxCell id="5" value="player" style="whiteSpace=wrap;html=1;fontSize=18;fillColor=#a20025;strokeColor=#6F0000;fontColor=#ffffff;rounded=0;labelBackgroundColor=none;gradientColor=none;strokeWidth=1;shadow=0;glass=0;" parent="1" vertex="1">
                    <mxGeometry x="1480" y="940" width="120" height="60" as="geometry"/>
                </mxCell>
                <mxCell id="12" value="" style="edgeStyle=none;html=1;" parent="1" target="11" edge="1">
                    <mxGeometry relative="1" as="geometry">
                        <mxPoint x="570" y="800" as="sourcePoint"/>
                        <Array as="points">
                            <mxPoint x="590" y="800"/>
                        </Array>
                    </mxGeometry>
                </mxCell>
                <mxCell id="7" value="item" style="whiteSpace=wrap;html=1;fontSize=18;fillColor=#a20025;strokeColor=#6F0000;fontColor=#ffffff;rounded=0;labelBackgroundColor=none;gradientColor=none;strokeWidth=1;shadow=0;glass=0;" parent="1" vertex="1">
                    <mxGeometry x="510" y="609.9999999999999" width="120" height="60" as="geometry"/>
                </mxCell>
                <mxCell id="16" style="edgeStyle=none;html=1;" parent="1" source="9" target="33" edge="1">
                    <mxGeometry relative="1" as="geometry"/>
                </mxCell>
                <mxCell id="9" value="hand_item" style="whiteSpace=wrap;html=1;fontSize=18;fillColor=#a20025;strokeColor=#6F0000;fontColor=#ffffff;rounded=0;labelBackgroundColor=none;gradientColor=none;strokeWidth=1;shadow=0;glass=0;" parent="1" vertex="1">
                    <mxGeometry x="640" y="929.9999999999999" width="120" height="60" as="geometry"/>
                </mxCell>
                <mxCell id="15" style="edgeStyle=none;html=1;exitX=1;exitY=0.5;exitDx=0;exitDy=0;" parent="1" source="11" target="33" edge="1">
                    <mxGeometry relative="1" as="geometry">
                        <mxPoint x="1190" y="919.9999999999998" as="targetPoint"/>
                    </mxGeometry>
                </mxCell>
                <mxCell id="11" value="armor" style="whiteSpace=wrap;html=1;fontSize=18;fillColor=#a20025;strokeColor=#6F0000;fontColor=#ffffff;rounded=0;labelBackgroundColor=none;gradientColor=none;strokeWidth=1;shadow=0;glass=0;" parent="1" vertex="1">
                    <mxGeometry x="620" y="779.9999999999999" width="120" height="60" as="geometry"/>
                </mxCell>
                <mxCell id="23" style="edgeStyle=none;html=1;" parent="1" source="33" target="4" edge="1">
                    <mxGeometry relative="1" as="geometry">
                        <mxPoint x="1030" y="872.6470588235295" as="sourcePoint"/>
                    </mxGeometry>
                </mxCell>
                <mxCell id="25" value="" style="endArrow=none;html=1;" parent="1" target="7" edge="1">
                    <mxGeometry width="50" height="50" relative="1" as="geometry">
                        <mxPoint x="570" y="950" as="sourcePoint"/>
                        <mxPoint x="740" y="780" as="targetPoint"/>
                    </mxGeometry>
                </mxCell>
                <mxCell id="30" value="" style="endArrow=classic;html=1;" parent="1" target="9" edge="1">
                    <mxGeometry width="50" height="50" relative="1" as="geometry">
                        <mxPoint x="570" y="950" as="sourcePoint"/>
                        <mxPoint x="620" y="900" as="targetPoint"/>
                    </mxGeometry>
                </mxCell>
                <mxCell id="33" value="codex" style="shape=process;whiteSpace=wrap;html=1;backgroundOutline=1;fontSize=32;fontColor=#6960af;labelBorderColor=default;fillColor=#f0a30a;strokeColor=#BD7000;" parent="1" vertex="1">
                    <mxGeometry x="820" y="840" width="200" height="90" as="geometry"/>
                </mxCell>
                <mxCell id="38" value="" style="edgeStyle=none;html=1;fontSize=32;" edge="1" parent="1" source="34" target="37">
                    <mxGeometry relative="1" as="geometry"/>
                </mxCell>
                <mxCell id="34" value="enemy" style="whiteSpace=wrap;html=1;fontSize=18;fillColor=#a20025;strokeColor=#6F0000;fontColor=#efedfd;rounded=0;labelBackgroundColor=none;gradientColor=none;strokeWidth=1;shadow=0;glass=0;" parent="1" vertex="1">
                    <mxGeometry x="1460" y="730" width="120" height="60" as="geometry"/>
                </mxCell>
                <mxCell id="36" value="GUI" style="rounded=0;whiteSpace=wrap;html=1;fillColor=#a20025;fontColor=#ffffff;strokeColor=#6F0000;fontSize=32;labelBackgroundColor=none;gradientColor=none;perimeterSpacing=0;strokeWidth=1;shadow=0;glass=0;" vertex="1" parent="1">
                    <mxGeometry x="2000" y="820" width="240" height="90" as="geometry"/>
                </mxCell>
                <mxCell id="37" value="Chars" style="whiteSpace=wrap;html=1;fontSize=22;fillColor=#a20025;strokeColor=#6F0000;fontColor=#efedfd;rounded=0;labelBackgroundColor=none;gradientColor=none;strokeWidth=1;shadow=0;glass=0;" vertex="1" parent="1">
                    <mxGeometry x="1630" y="820" width="120" height="60" as="geometry"/>
                </mxCell>
            </root>
        </mxGraphModel>
    </diagram>
</mxfile>